<?xml version="1.0" encoding="iso-8859-1"?>
<!-- Generator: Adobe Illustrator 16.0.0, SVG Export Plug-In . SVG Version: 6.00 Build 0)  -->
<!DOCTYPE svg PUBLIC "-//W3C//DTD SVG 1.1//EN" "http://www.w3.org/Graphics/SVG/1.1/DTD/svg11.dtd">
<svg version="1.1" id="katman_1" xmlns="http://www.w3.org/2000/svg" xmlns:xlink="http://www.w3.org/1999/xlink" x="0px" y="0px"
	 width="841.89px" height="1190.55px" viewBox="0 0 841.89 1190.55" style="enable-background:new 0 0 841.89 1190.55;"
	 xml:space="preserve">
<g>
	<path style="fill-rule:evenodd;clip-rule:evenodd;" d="M242.871,536.795c-4.04-0.562-7.797-0.859-11.522-0.283
		c-4.917,0.76-1.924,8.043,1.791,8.146c4.379,0.121,8.095,0.655,12.223,2.722c6.288,3.148,11.61,10.716,4.975-2.63
		C248.615,541.288,246.595,537.312,242.871,536.795L242.871,536.795z M352.518,594.991c-2.282-0.018-3.663-1.466-3.646-3.816
		c0.014-2.153,1.303-3.479,3.402-3.612c1.877-0.118,2.98,0.81,3.565,2.253C356.824,592.249,355.308,595.013,352.518,594.991
		L352.518,594.991z M257.467,594.584c-2.073-0.067-3.532-1.275-3.599-3.394c-0.071-2.267,1.228-3.723,3.57-3.856
		c2.063-0.118,3.059,1.04,3.642,2.553C261.947,592.137,259.965,594.663,257.467,594.584L257.467,594.584z M324.227,704.275
		c-0.032,4.939-2.513,6.05-6.17,8.572c-1.888,1.303-1.581,0.65-1.167-1.284c0.463-2.173,0.467-3.506,0.712-5.613
		c0.213-1.831,1.059-1.851,2.65-2.251c0.481-0.128,3.457-0.931,3.743-0.757C324.225,703.081,324.21,704.029,324.227,704.275
		L324.227,704.275z M292.952,712.683c0.354,1.77-0.043,1.486-1.37,0.604c-3.072-2.036-6.561-3.97-6.017-8.274
		c0.199-1.577,1.011-1.452,2.379-1.145c0.461,0.104,4.035,0.957,4.152,1.267c0.019,0.05,0.124,3.206,0.194,3.8
		C292.438,710.185,292.706,711.448,292.952,712.683L292.952,712.683z M372.265,536.795c4.039-0.562,7.797-0.859,11.522-0.283
		c4.918,0.76,1.925,8.043-1.791,8.146c-4.379,0.121-8.095,0.655-12.223,2.722c-6.288,3.148-11.61,10.716-4.974-2.629
		C366.521,541.288,368.541,537.312,372.265,536.795L372.265,536.795z M304.716,682.169c-4.816-5.385-8.833-10.52-12.733-16.609
		c-1.896-2.961-2.735-2.756-5.919-3.72c-1.153-0.35-2.236-0.633-3.417-0.872c-4.962-0.929-6.212-4.071-5.185-8.415
		c1.32-5.423,4.093-9.786,7.678-13.995c2.044-2.399,2.392-1.049,3.443,1.251c3.126,6.757,7.297,13.58,13.06,18.402
		c2.645,2.213-1.151,0.766-2.123,0.145c-1.785-1.142-2.778-2.78-5.006-3.109c-2.089,0.07-1.936,1.657-1.663,3.297
		c0.735,4.418,2.358,4.869,6.274,6.287c5.077,1.794,9.726,1.778,14.698-0.387c2.06-0.897,2.096-1.963,2.423-4.091
		c0.217-1.415,0.297-2.498-0.517-3.735c-0.647-0.73-1.576-0.141-2.266,0.271c-0.709,0.437-3.518,2.318-4.113,2.33
		c0.154-0.456,2.765-3.46,3.301-4.135c3.722-4.848,6.701-10.438,9.214-15.995c1.175-2.622,1.838-1.81,3.391,0.148
		c4.009,5.056,6.822,9.248,7.614,15.837c0.256,2.288-0.424,4.912-2.763,5.118c-10.157,1.128-13.34,8.704-19.487,15.467
		C308.795,677.624,307.015,679.63,304.716,682.169L304.716,682.169z M346.716,624.334c-2.698,0.747-3.02,0.187-4.848-1.562
		c-3.46-3.308-7.199-6.593-10.743-9.842c-4.179-3.835-8.333-7.697-12.496-11.55c-0.976-0.902-0.91-2.678-0.949-3.91
		c-0.253-7.884,5.445-10.967,11.343-14.565l0.282-0.172l0.312-0.19c1.623-0.995,6.863-4.074,6.58-6.187
		c-0.153-1.149-2.807-4.553-3.64-5.778c-0.715-1.052-1.425-2.107-2.13-3.166c-1.745-2.627-1.043-3.298-0.088-6.14
		c3.19-9.496,6.372-19.829,6.181-29.926c-0.07-10.35,4.618-16.793,10.604-24.671c1.06-1.395,1.258-1.433,3.029-1.401
		c2.57,0.129,5.197,0.303,7.77,0.467c3.636,0.311,3.868,1.9,5.807,4.66c1.112,1.582,5.368,7.706,6.485,8.639
		c1.059,0.511,3.176-1.512,4.066-2.196c1.649-1.265,2.803-1.988,4.936-2.088c1.07-0.018,1.034-0.038,0.958-1.243
		c-0.718-9.614-4.414-18.248-12.62-23.712l-0.289-0.192c-12.87-8.532-21.129-19.679-27.899-33.376
		c-6.13-12.338-15.632-23.865-27.435-31.142c-1.03-0.635-5.552-3.348-5.759-0.748l0.001,0.392c0.105,1.512,1.328,3.364,2.183,4.561
		c16.702,22.728,21.411,47.232,8.753,73.127c-7.304,14.939-11.013,30.093-9.578,47.005c0.526,5.606,2.532,8.683,4.221,13.716
		c0.957,2.852-0.092,2.398-1.416,4.514c-4.499,7.447-0.669,23.386,2.026,31.167c1.314,3.724,1.38,2.969-1.316,5.947
		c-5.892,6.688-7.302,14.412-1.396,21.667c0.732,0.898,2.746,2.665,3,3.542c0.317,1.095-1.461,3.494-2.063,4.536
		c-1.274,2.206-2.523,4.44-3.752,6.673c-1.946,3.54-2.514,2.223-4.08-0.804c-1.575-3.038-3.146-5.85-4.827-8.821
		c-1.271-2.247-0.167-2.748,1.503-4.383c5.76-5.638,6.238-12.348,2.166-19.117c-1.021-1.696-2.184-3.207-3.469-4.707
		c-1.791-2.069-1.416-2.258-0.431-4.681c3.142-7.729,5.188-18.021,3.58-26.296c-0.478-2.458-1.214-4.636-2.338-6.874
		c-0.898-1.755-0.829-2.013-0.177-3.926c1.469-4.313,3.004-7.095,3.267-11.838c0.727-15.918-0.049-29.813-7.785-44.424
		c-12.003-22.672-11.547-46.058,2.17-68.492c1.747-2.858,3.402-5.771,5.09-8.749c3.814-6.73,0.857-6.049-4.392-2.422
		c-9.731,6.722-18.379,14.986-23.45,25.425c-8.454,17.406-20.11,31.574-35.676,42.817c-6.489,5.136-6.623,11.434-8.114,18.969
		c-0.841,4.253,0.756,0.458,5.214,3.478c4.551,3.083,4.032,3.694,7.491-1.091c1.046-1.447,2.158-2.89,3.23-4.322
		c11.744-15.699,29.558,3.741,27.685,22.542c-0.136,1.369,0.386,2.797,0.546,4.205c0.828,7.276,3.063,14.23,5.023,21.144
		c0.602,2.097,1.994,5.406,1.096,7.454c-1.542,3.238-4.272,5.869-5.885,8.783c-1.429,2.582,0.644,3.331,2.73,4.796
		c2.442,1.714,4.723,3.415,7.269,4.999c5.145,3.15,8.22,6.064,8.185,12.53c-0.019,3.605-2.828,5.387-5.338,7.671
		c-6.695,6.089-13.353,12.261-20.004,18.399c-1.756,1.622-1.116,1.531-3.273,0.812c-13.675-4.569-6.128-4.911-24.309-0.45
		c-1.247,0.306-2.358,1.003-3.521,1.547c-1.567,0.759-7.922,4.021-8.171,5.637c-0.184,1.194,1.358,4.164,2.117,5.064
		c1.302,1.544,3.019,1.97,4.648,3.04c4.102,2.694,6.482,6.86,8.856,11.013c2.69,4.739,5.109,9.626,7.511,14.515
		c0.81,1.648,1.226,0.911,1.92-0.512c0.544-1.115,1.007-2.3,1.509-3.438c1.242-2.764,2.489-5.511,3.829-8.228
		c3.169-6.486,5.397-12.581,12.065-16.377c1.584-0.901,5.007-2.272,6.804-1.723c0.877,0.269-0.441,1.531-0.769,1.908
		c-1.807,2.077-3.086,3.669-4.654,5.943c-7.195,10.576-11.229,20.5-20.698,29.746c-1.496,1.461-1.641,0.619-2.477-1.117
		c-1.346-2.794-2.658-5.546-3.973-8.356c-4.362-9.283-10.134-21.078-18.787-27.03c-2.939-2.021-4.083-0.254-6.674,1.402
		c-2.462,1.573-1.428,2.876,0.058,5.062c7.931,11.668,15.676,23.698,23.453,35.494c2.02,3.064,4.04,6.129,6.061,9.194l0.289,0.438
		c0.493,0.749,1.85,3.512,2.751,3.2c0.751-0.26,1.755-2.251,2.171-2.974c4.11-6.792,10.265-17.168,17.3-21.056
		c2.949-1.63,3.696,0.565,5.208,2.951c6.107,9.638,16.216,16.259,26.548,20.622c2.658,1.111,3.153,0.571,5.727-0.516
		c5.407-2.284,9.558-4.849,14.352-8.186l0.268-0.187c5.044-3.593,8.506-8.783,12.024-13.781c1.505-2.139,2.057-1.949,4.104-0.403
		c8.38,6.398,13.941,13.823,18.176,23.456c0.768,1.747,1.242,0.712,2.182-0.687c4.679-6.959,9.271-14.175,13.885-21.202
		c5.392-8.212,10.795-16.415,16.246-24.588c0.828-1.149,3.208-3.744,2.355-5.207c-0.783-1.347-3.525-3.114-4.931-3.847
		c-1.135-0.544-1.922,0.326-2.862,1.052c-12.877,10.366-15.877,21.416-22.897,35.427c-1.894,3.78-1.931,2.146-4.162-0.53
		c-1.901-2.28-3.863-4.349-5.643-6.751c-6.603-9.113-10.656-19.104-18.454-27.546c-2.069-2.206-1.612-2.357,1.212-1.615
		c15.479,4.754,15.612,17.549,22.731,29.426c1.746,2.912,2.041,1.48,2.998-0.985c0.586-1.509,1.167-2.976,1.844-4.447
		c4.938-10.589,11.387-18.301,20.465-25.59c1.957-1.542,1.277-1.807-0.662-2.902c-2.869-1.623-5.598-3.339-8.549-4.838
		C361.719,621.782,358.277,621.131,346.716,624.334L346.716,624.334z M371.745,610.708c-5.995-6.301-9.715-1.241-16.979-1.708
		c-2.686-0.343-1.371-1.89-0.271-3.309c2.252-2.282,5.022-2.293,7.951-3.807c0.667-0.345,5.105-2.82,1.442-1.632
		c-4.698,1.523-8.649,3.353-13.764,2.718c-1.597-0.29,0.209-0.59,0.111-1.442c-0.333-0.546-2.903-1.44-3.749-1.947
		c-4.075-2.444-4.884-6.488-4.922-10.9c-4.64,4.196-5.181,5.852-2.521,11.54c1.361,2.909,0.352,2.303-2.792,1.978
		c-3.06-0.315-3.896-0.648-6.232-2.439c-0.983-0.754-0.71,2.161,4.856,3.225c1.842,0.352,12.242,1.614,4.994,4.038
		c-3.226,1.079-6.096,0.293-0.388,1.596c4.074,0.984-0.126,2.166,0.998,4.777c0.257,0.598,0.681,1.217,1.029,1.773
		C345.896,622.046,368.537,620.428,371.745,610.708L371.745,610.708z M268.394,613.357c0.653-2.731-1.69-2.926-4.306-3.673
		c-7.618-1.872-14.431-0.709-22.168-3.033c-2.917-0.876-3.448-0.842-4.417,2.163c-0.665,2.273,0.383,3.773,1.756,5.456
		c3.49,3.613,5.947,4.536,10.69,3.197c3.595-1.015,3.736-0.941,7.052,0.647c1.834,0.879,4.235,1.352,6.277,1.117
		C266.566,618.854,267.667,616.229,268.394,613.357L268.394,613.357z M312.993,402.381c-0.561-1.458-0.522,0.802-0.548,1.262
		c-0.182,3.052-1.096,13.624,0.475,15.839c1.716,1.774,3.828,1.355,3.464-1.487c-0.206-1.609-0.567-3.351-0.838-4.97
		C314.955,409.298,314.333,405.935,312.993,402.381L312.993,402.381z M310.474,413.957c0-2.027,0.11-18.366-0.082-18.869
		c-0.532-1.386-1.46,3.434-1.501,3.599c-1.227,4.964-2.454,9.929-3.68,14.893C304.409,416.829,310.474,416.47,310.474,413.957
		L310.474,413.957z M363.242,588.67c0.742,5.479-0.731,6.753-3.843,10.8c-1.683,2.188,1.483,0.254,2.277-0.145
		c3.476-1.742,6.996-4.335,9.167-7.61c0.871-1.314-0.109-1.751-1.168-2.509c-1.64-1.198-3.067-1.87-5.01-2.444
		C361.559,585.916,362.71,586.38,363.242,588.67L363.242,588.67z M233.41,590.09c-1.149-0.181-0.643,0.132,0.007,0.725
		c0.634,0.646,3.098,3.514,4.036,2.89c1.648-1.854-0.379-4.208,3.939,0.266c1.647,1.708,5.155,4.85,7.563,5.096
		c1.546,0.158-0.351-2.265-0.698-2.872c-2.086-4.035-1.325-3.541-1.558-7.576c-0.205-3.544-2.836-1.744-4.923-0.607
		c-2.973,1.619-4.107,2.401-7.67,2.148L233.41,590.09L233.41,590.09z M351.012,451.376c-0.115,0.082-0.181,0.131-0.281,0.226
		c0.355,4.401,4.367,10.289,7.899,12.723c2.193,1.511,2.684-0.537,3.304-2.433c0.213-0.652,0.732-2.606,0.019-3.114
		c-0.483-0.343-4.637,0.292-4.511-2.497c0.071-1.559,0.573-2.602-2.014-1.898c-1.308,0.355-1.628,0.956-0.404-0.946
		c1.538-2.388,4.217-5.078,5.34-7.478C360.028,445.68,351.828,450.811,351.012,451.376L351.012,451.376z M371.358,437.345
		c0.232-3.316-1.122,1.723-2.121,1.408c-0.773-0.244-0.77-1.976-1.601-1.126c-1.01,1.656-1.541,2.798-2.759,4.415
		c-1.405,1.827-5.777,7.471-4.145,9.768c0.805,1.132,1.828-0.883,2.731,0.032c1.036,1.049,0.961,1.607,2.557-0.183
		c2.057-2.309,3.428-5.625,4.381-8.54C370.93,441.197,371.208,439.332,371.358,437.345L371.358,437.345z M278.616,601.731
		c4.716-1.419-2.791-0.265-3.497-0.189c-0.09,0.01-5.029,0.615-5.254,0.519l-0.065-0.041c-0.139-0.197,0.642-1.167,0.781-1.379
		c2.933-4.814,2.915-7.819-1.585-11.519c-0.706-0.538-0.562-0.12-0.554,0.561c0.041,3.223-1.137,6.408-3.558,8.583
		c-2.26,1.897-2.772,1.787-5.3,2.838c-1.49,0.619,4.099,1.804-0.486,1.796c-4.395-0.007-7.342-1.158-11.399-2.296
		c-4.47-1.254,2.854,2.106,3.472,2.339C259.73,606.163,270.1,604.212,278.616,601.731L278.616,601.731z M377.91,440.668
		c0.036-2.024-1.074-0.569-2.566-2.292c-0.21-0.243-0.258-0.229-0.588,0.179c-2.023,3.219-7.541,16.088-6.363,19.468
		c2,5.738,4.597-2.956,4.788,2.402l0.012,0.328c0.034,1.02,0.026,1.833,0.155,2.861c1.275-2.486,2.941-9.473,3.479-12.398
		C377.474,447.7,377.835,444.242,377.91,440.668L377.91,440.668z M344.759,588.209c-1.773,4.672,0.048,8.327,4.434,10.484
		c4.712,1.95,8.422,0.341,10.907-4.021c1.727-3.031,1.032-5.435-0.779-8.183C357.354,583.901,346.371,584.399,344.759,588.209
		L344.759,588.209z M253.502,598.147c3.78,2.355,8.701,0.57,11.2-2.71c2.036-2.887,2.002-6.137-0.478-8.767
		c-2.479-2.123-6.611-2.557-9.732-1.903c-5.916,1.238-7.029,8.213-2.827,12c0.429,0.388,0.832,0.684,1.296,1.023L253.502,598.147
		L253.502,598.147z M235.17,436.605c0.543,6.434,1.087,12.869,1.63,19.303c1.089,12.912,12.824,2.453,10.09-3.329
		c-2.647-5.6-5.289-11.187-8.04-17.007C237.569,432.859,234.936,433.831,235.17,436.605L235.17,436.605z M193.189,555.624
		c1.651-0.404,2.972-1.596,4.534-1.833c1-0.134,1.791,0.168,2.594,0.743c0.543,0.397,0.189,0.449-0.294,0.605
		c-0.476,0.158-3.899,1.311-3.99,1.468c-0.111,0.193,1.064,0.957,1.266,1.109c0.87,0.654,1.73,1.32,2.6,1.974
		c0.867,0.65,0.364,0.598-0.431,0.579c-0.416-0.009-3.107-0.057-3.292,0.005c-0.318,0.106,0.374,0.553,0.469,0.623
		c0.598,0.44,1.228,0.893,1.816,1.341c0.704,0.535,0.685,0.905,0.148,1.546c-0.457,0.577-0.37,0.938,0.222,1.401
		c0.166,0.13,0.331,0.244,0.495,0.38c0.93,0.812,1.746,1.543,3.073,1.148c0.547-0.164,0.04-0.489-0.218-0.743
		c-1.333-1.315-0.688-3.081-0.538-4.704c0.095-1.099-0.038-1.55-0.627-2.463c-0.444-0.688-0.173-0.731,0.446-1.175
		c1.877-1.426,1.15-3.944,1.763-5.993c0.215-0.717,0.068-0.452-0.343-0.038c-0.782,0.787-1.402,0.967-2.232,0.127
		c-0.36-0.41-1.026-1.587-1.593-1.493c-0.695,0.22-1.745,2.164-2.448,2.419c-0.733,0.267-3.743,0.121-4.64,0.031
		c-5.44-0.612-9.602-2.542-14.383-5.019c-0.992-0.514-0.67,0.095-0.382,0.964c1.306,3.936,2.803,7.265,5.344,10.574
		c2.177,2.794,4.771,4.948,7.929,6.556c1.574,0.081,2.67-0.124,2.865-1.846c0.11-0.973-0.028-1.86,0.704-2.616
		c0.105-0.109,0.076-0.126,0.051-0.278c-0.264-1.11-2.009-1.028-1.937-2.377c0.024-0.446,0.471-0.433,0.858-0.511
		c1.397-0.299,1.078-0.479,0.252-1.33c-0.143-0.149-0.81-0.806-0.675-0.995C192.674,555.692,193.059,555.649,193.189,555.624
		L193.189,555.624z M297.559,745.001c-0.924,5.012,1.161,8.795,6.438,9.556c2.313,0.333,4.408-0.16,6.331-1.479
		c2.513-1.809,2.514-4.719,2.148-7.5c-0.64-4.058-2.331-7.886-5.889-10.198c-2.071-1.347-3.538-0.353-5.1,1.258
		c-1.976,2.038-3.061,4.687-3.721,7.405C297.691,744.362,297.625,744.68,297.559,745.001L297.559,745.001z M408.628,443.783
		c-1.625,0.408-3.094-0.368-4.821,1.061c-1.69,1.397-1.729,2.044-4.186,2.707c-1.639,0.414-4.606,0.81-5.342,2.529
		c-0.602,1.406-0.561,0.774-1.607,1.727c-1.567,1.429,3.012,1.555,3.486,1.668c0.92,0.22,1.246,0.679,1.667,1.475
		c0.184,0.409,0.584,0.178,1.125,0.101l0.579-0.082c0.934-0.118,4.439-0.818,5.068-0.444c0.238,0.142,0.134,0.179-0.009,0.58
		c-0.082,0.229-0.719,1.443-0.711,1.525c0.038,0.373,0.593,0.456,0.899,0.429c1.947-0.17,1.702,0.431,0.764,1.685
		c-0.869,1.162-1.052,1.185,0.694,0.521c2.032-0.773,2.314-1.2,4.674-1.648c2.006-0.382,1.709-1.261,2.113-3.105
		c1.074-4.562,4.153-10.503,3.378-15.114c-0.367-2.184-1.659-0.615-2.556,0.233C412.949,440.453,409.64,443.405,408.628,443.783
		L408.628,443.783z M253.367,442.142c10.587-5.4,22.013-8.419,32.714-13.029c13.779-5.936,11.293-6.029-1.708-3.849
		c-12.091,2.045-24.102,5.792-35.299,10.783c-1.581,0.705-2.792,1.589-1.767,3.459C248.362,441.428,251.221,443.04,253.367,442.142
		L253.367,442.142z M356.933,442.398c2.356,1.166,2.493,0.529,4.215-1.501c0.958-1.129,1.92-2.267,2.909-3.369
		c-13.736-6.185-25.645-9.948-40.521-12.428c-0.384-0.064-11.188-2.138-8.779-0.336c2.598,1.943,12.871,5.93,16.417,7.292
		C339.878,435.36,348.551,438.271,356.933,442.398L356.933,442.398z M203.171,443.814c-3.627-0.779-3.559-1.483-6.257-3.755
		c-0.559-0.471-2.687-2.31-3.297-2.443c-0.832,0.146,0.614,7.182,0.84,8.344c1.57,7.507,3.906,14.925,6.315,22.202
		c0.668,2.02,0.885,1.832,1.076-0.238c0.246-2.665-0.512-3.966-1.42-6.36c-1.105-2.981,1.25,0.36,2.462-0.403
		c0.825-0.52-0.392-1.474,2.966-0.953c1.359,0.21,2.155,0.144,2.607-1.35c0.767-2.531-2.508-4.063,1.661-3.503
		c1.027,0.138,2.1,0.313,2.877-0.472c0.541-1.604,0.105-1.538,2.25-1.715c6.216-0.514-4.418-6.537-5.654-7.179
		C207.5,444.958,205.449,444.317,203.171,443.814L203.171,443.814z M383.607,597.548c-2.118,3.099-3.261,6.637-2.599,10.465
		c1.011,5.864,2.142,11.71,3.248,17.558c1.161,4.764,3.546,7.507,8.651,7.814c2.852,0.063,2.902-1.344,3.747-3.705
		c2.838-7.678,4.865-15.219,5.952-23.344c0.938-7.365,1.273-17.357-2.388-24.025c-1.492-2.717-2.272,0.003-3.427,1.646
		c-3.484,4.957-9.223,7.998-12.982,13.307L383.607,597.548L383.607,597.548z M225.877,624.55c0.892-5.097,1.791-10.185,2.901-15.239
		c0.916-4.149,0.242-8.021-1.96-11.441c-3.71-5.734-9.121-9.926-13.067-15.531c-0.972-1.384-1.765-2.683-2.521-4.196
		c-0.542-1.084-0.753-0.362-0.981,0.395c-0.483,1.599-0.992,3.121-1.427,4.745c-0.147,0.553-0.287,1.106-0.419,1.663
		c-3.734,16.11-0.763,30.25,5.353,45.299c1.172,2.886,2.795,3.433,5.795,2.589c3.914-1.102,5.436-3.854,6.197-7.641L225.877,624.55
		L225.877,624.55z M322.55,754.579c8.751-0.663,12.113-4.381,12.058-13.117c-0.031-5.02-2.785-8.808-5.53-12.593
		c-1.361-1.876-2.885-3.687-1.827-6.164c2.973-6.977,5.55-13.11,0.363-19.837c2.03-2.328,4.287-1.899,5.477-3.431
		c0.229-0.294,0.299-0.487,0.437-0.824c-3.881-1.63-12.374-2.008-16.662-1.595c-3.527,0.38-6.067,1.222-9.42,1.907
		c-4.933,1.009-7.297-1.099-11.915-1.947c-6.16-0.859-14.264,0.177-20.396,1.311c-1.293,0.239-0.468,0.47,0.454,1.044
		c1.757,1.095,2.726,1.721,4.662,2.574c2.174,0.963,1.627,1.028,0.894,3.404c-1.013,3.283-2.178,6.614-1.419,10.078
		c0.334,1.241,0.916,2.544,1.429,3.724c1.922,4.409,1.508,7.634-1.579,11.543c-5.509,6.978-5.688,13.682-1.665,19.183
		c3.621,4.777,10.522,5.679,16.062,4.692c3.35-0.597,1.576-1.97,0.24-3.979c-1.757-2.643-3.933-6.364-4.062-9.592
		c-0.083-5.268,5.946-12.299,8.729-16.471c1.875-2.812,1.141-3.53,0.718-6.654c-0.315-2.328-1.247-8.712-0.466-10.784
		c0.463-1.064,1.723-0.552,2.653-0.367c2.62,0.454,4.201-0.132,6.673-0.675c2.269-0.499,2.459,0.477,2.475,2.588
		c-0.001,3.986-0.849,7.681-1.032,11.545c-0.149,3.126,2.124,5.158,3.927,7.532c2.719,3.58,6.611,8.405,6.112,13.167
		c-0.516,4.154-3.723,9.122-5.911,12.658c-1.156,1.868,0.11,1.647,1.796,1.521C318.067,754.852,320.307,754.746,322.55,754.579
		L322.55,754.579z M243.031,523.988c-1.038,1.909-1.909,2.074-3.99,1.355c-4.85-1.837-5.856-5.037-11.589-6.228
		c-2.316-0.481-2.061-1.684-1.983-3.991c0.272-8.082,4.162-14.445-1.883-21.576c-2.969-3.356-3.859-7.803-3.992-12.314
		c-0.308-10.415,4.103-18.568,12.144-24.859c-0.382-2.734-0.753-5.473-1.147-8.205c-18.319,14.093-28.854,29.951-29.62,53.539
		c-0.289,15.154-0.324,29.947,6.971,43.887c3.365,6.431,5.227,13.688,4.87,20.944c-0.298,7.434,4.564,10.709,8.582,16
		c1.032,1.359,0.962,0.203,1.139-0.813c0.319-1.832,0.823-3.795,1.369-5.574c1.425-4.627,3.577-8.862,7.121-12.229
		c10.055-9.5,18.261-6.948,26.907,2.265c3.779,3.543,11.094,5.356,15.278,1.77c2.337-2.004,1.761-4.659,0.72-7.161
		c-2.955-6.104-4.51-9.059-9.427-13.399c-2.62-2.313-6.037-4.07-6.556-7.994c-0.642-4.903-1.431-10.395-1.765-15.291
		c-0.254-3.725,0.994-11.046-1.397-13.81c-2.066-2.388-4.737,1.458-5.751,2.952c-1.909,2.966-4.02,7.098-5.75,10.278
		L243.031,523.988L243.031,523.988z M396.911,570.394c0.327-10.987,3.027-20.791,7.869-30.625c1.647-3.329,2.604-6.853,3.205-10.522
		c2.275-13.894,1.062-27.639-0.843-41.495c-2.92-18.094-14.803-27.156-26.722-39.484c-1.245-1.288-1.056-0.457-1.204,1.2
		c-0.191,2.096-0.465,4.023-0.722,6.095c-0.171,1.381,0.552,1.684,1.579,2.625c11.045,10.119,13.628,22.607,5.992,35.706
		c-0.554,0.951-1.134,1.853-1.752,2.763c-1.227,1.792-1.432,3.609-1.214,5.645c0.445,4.167,0.795,8.436,1.296,12.578
		c0.116,0.964,0.721,3.467-0.236,4.012c-0.839,0.479-2.869,0.549-4.279,1.18c-3.397,1.593-6.376,5.33-10.026,5.778
		c-2.684,0.166-3.153-2.127-4.193-4.139c-0.798-1.555-3.869-8.014-5.061-8.622c-1.339-0.683-5.895-0.899-7.75-1.169
		c-2.644-0.384-4.338-0.053-2.779,3.093c1.808,3.646,4.064,2.912,3.937,8.141c-0.082,3.394-0.011,6.763-0.088,10.153
		c-0.293,8.597-2.144,15.434-9.811,20.28c-4.186,2.67-11.362,8.505-8.56,14.222c2.03,3.498,5.725,3.521,9.203,2.45
		c1.455-0.526,2.632-1.235,3.875-2.145c4.053-3.05,7.321-4.906,11.859-7.502c6.622-3.788,6.478-2.857,11.601-0.542
		c3.976,1.797,6.973,1.357,9.223,5.739c2.505,4.911,4.314,9.926,6.345,15.025c1.032,2.594,1.672,1.277,3.103-0.325
		C393.662,577.291,396.584,575.043,396.911,570.394L396.911,570.394z M146.795,736.947c3.176-5.12-0.708,6.816,0.89,4.175
		c1.571-2.6,3.252-6.249,4.694-9.024c0.328-0.631,3.792-7.438,4.266-7.399c1.297,0.104-0.402,11.024-0.07,12.69
		c0.504-0.456,6.771-18.732,4.565-3.387c-0.309,2.145-0.661,4.28-0.951,6.429c-0.236,1.759-2.021,13.417-1.632,14.161
		c0.518-1.047,1.501-5.385,1.99-6.971c2.115-6.862,5.049-13.213,8.546-19.471l0.26-0.465c1.184-2.072,0.459,0.285,0.313,1.234
		c-0.024,0.154-1.712,9.446-0.521,7.914c0.389-0.501,5.312-17.545,6.055-19.839l0.162-0.502l0.163-0.497
		c0.918-2.588,3.479-9.631,5.997-10.697c1.956-0.827,4.663-0.366,7.499-1.52c3.629-1.477,4.356-2.746,3.211,2.325
		c-2.264,11.165-4.253,23.048-5.631,34.354c-0.741,6.252-1.6,14.318-1.407,20.54c0.089,2.855,0.957-4.412,0.965-4.464
		c0.129-0.823,1.484-9.813,2.041-9.831c1.314-0.042-0.004,8.689,0.95,10.327c0.853-0.397,1.756-12.023,1.951-13.748
		c0.316-2.638,0.674-5.243,1.109-7.864c0.482-2.799,0.331,0.527,0.32,1.283c-0.094,3.414-1.361,22.933-0.509,24.529
		c1.573-0.019,3.199-18.418,3.51-20.689c0.194-1.414,0.708-3.999,0.912-5.411c0.579-4.013,2.114-8.547,2.042-0.794
		c-0.343,37.056,2.021-8.951,3-17.798c1.058-9.555,2.566-18.728,5.447-27.924c1.24-3.873,1.345-0.859,1.622,1.349
		c1.432,11.43,2.274,24.419,2.708,4.368c0.727-33.36-0.396-29.909-8.548-67.909l-0.104-0.481
		c-17.613-23.685-21.659-48.951-26.469-77.171c-0.07-0.415-0.577-2.178-0.123-2.375c0.645-0.278,3.734,1.205,4.235,0.604
		c0.143-0.172,1.586-4.582,1.779-5.146c0.269-0.792,0.536-1.571,0.788-2.37c0.275-0.875,0.527-0.707,1.166-0.169
		c2.962,2.496,3.982,5.485,6.253,8.415c0.227,0.288,1.848,2.309,2.133,2.084c0.202-0.159,0.112-1.693,0.113-2.057
		c0.014-8.764-0.078-17.54,1.218-26.233c1.836-12.194,3.75-24.383,6.02-36.503c1.407-8.248,1.178-14.435-3.186-21.797
		c-5.547-9.09-4.094-17.028-3.872-27.048c0.062-3.763,0.698-2.159,2.635-0.112c6.197,6.058,14.209,7.371,21.383,11.664
		c2.028,1.213,2.273,1.026,4.415-0.093c2.515-1.314,4.733-2.9,7.07-4.488c2.679-1.814,2.017-2.875,2.326-5.785
		c0.489-4.606,2.376-9.469,4.036-13.779c1.343-3.489,1.792-2.404,3.455,0.416c1.715,2.91,3.388,5.854,5.098,8.759
		c0.845,1.436,1.408,0.854,2.929,0.238c8.928-3.615,19.535-6.722,28.93-8.895c6.576-1.521,13.18-2.72,19.867-3.635
		c4.89-0.665,4.816,0.541,6.621-3.914c3.188-7.916,5.448-16.749,7.484-25.042c0.824-3.355,1.427-1.871,2.501,0.48
		c3.192,6.987,5.083,12.393,6.833,19.878c0.581,2.482,1.098,4.977,1.594,7.478c0.505,2.547,1.003,2.042,3.541,2.46
		c4.029,0.664,8.362,1.71,12.36,2.635c10.125,2.345,19.911,5.188,29.479,9.29c0.807,0.349,0.773,0.151,1.474-0.627
		c2.576-2.961,3.704-7.227,6.601-9.976c1.209-1.147,1.662,0.02,2.229,1.203c2.406,5.017,3.734,9.513,4.238,15.063
		c0.261,3.012,0.887,3.02,3.172,4.672c2.153,1.588,6.347,4.838,9.12,4.324c1.241-0.398,3.171-1.65,4.406-2.313
		c7.088-3.297,13.657-4.748,19.09-10.863c1.53-1.723,1.754-1.5,1.976,0.878c0.198,2.12,0.385,4.244,0.583,6.367
		c0.527,5.65,0.467,10.237-2.064,15.458c-2.184,4.297-3.77,7.412-4.989,12.156c-1.407,5.475-1.566,10.679-0.62,16.247
		c3.483,19.819,8.376,41.323,6.876,61.48c-0.171,2.553-0.109,3.093,1.813,0.96c2.472-2.911,3.834-6.383,6.64-8.978
		c1.357-1.218,1.505-0.377,1.901,1.051c0.618,2.229,1.54,4.929,1.983,7.132c0.031,0.152,0.046,0.246,0.057,0.398
		c-0.036,1.439-5.195,3.348-6.543,3.711c-2.462,0.585-8.19,2.104-10.268,0.374c-0.467-0.39-1.964-2.187-2.52-2.046
		c-0.225,0.058-0.926,0.925-1.971,1.29c-1.692,0.591-1.743,0.098-1.448,2.329c0.374,2.829,1.697,3.39,1.921,4.599
		c0.146,0.794-0.614,1.706-0.916,2.539c-0.46,1.595-0.058,2.696-0.734,4.59l-0.149,0.418c-0.365,0.979-0.275,1.079,0.952,1.004
		c1.368-0.083,2.658-0.71,3.156-2.066c0.44-1.199-0.728-1.388,0.727-2.894c2.263-2.692-0.709-0.926-0.812-2.202
		c-0.088-1.094,2.362-2.051,1.088-3.497c-0.542-0.617-2.069-1.893-0.279-2.176c1.376-0.217,3.524,0.967,4.745,1.625
		c1.325,0.713-0.086,0.379-0.095,1.704c-0.009,1.263,1.784,0.787,1.7,1.565l-0.185,0.216c-2.869,2.135-1.964,1.217-1.304,4.264
		c0.643,2.966,1.505,3.135,4.051,1.633c1.728-1.062,3.902-2.838,5.326-4.299c3.058-3.215,4.999-7.029,6.415-11.199l0.109-0.323
		c1.185-3.589,2.31-1.861,1.563,0.806c-0.389,1.387-0.918,2.701-1.315,4.159c-3.665,13.45-3.005,26.77-8.988,39.836
		c-10.939,23.374-33.378,61.461-23.601,88.059c7.093,19.79,4.45,37.366,3.753,57.689c-0.071,2.1,0.015,1.321,0.329-0.162
		c1.209-5.722,2.345-11.521,3.593-17.221c0.034-0.154,0.636-2.832,1.136-1.655c0.301,0.709,0.131,9.529,0.128,11.044
		c-0.004,2.448-0.001,4.896,0.018,7.346c0.026,3.172,0.727-1.829,0.794-2.25c1.293-8.415,1.185-16.582,1.242-25.053
		c0.014-1.9,0.422-0.327,0.744,0.583c2.729,7.767,3.7,14.463,4.683,22.561c0.271,2.235,0.288,0.762,0.34-0.417
		c0.33-8.023-0.702-16.588,0.548-24.471c0.063-0.393,0.248-1.545,0.815-1.46l0.19,0.066c0.975,0.597,2.541,3.731,3.047,2.912
		c0.403-0.653,0.247-2.154,1.869-0.3c1.676,1.951,3.317,4.36,4.933,6.439c2.184,2.813,4.393,5.604,6.577,8.416l0.196,0.253
		c1.013,1.304,6.326,8.368,7.071,8.884c0.937,0.647,0.836-0.417,0.556-1.092c-0.556-1.338-1.646-3.227-2.346-4.584
		c-1.043-2.021-8.704-16.377-8.755-17.203c-0.054-0.861,2.324,1.51,2.503,1.666c3.228,2.819,6.535,5.538,9.744,8.384
		c11.135,9.988,20.143,21.193,30.218,32.114c3.691,4.001,3.632,3.128,3.518,8.739c-0.122,6.014-0.038,12.209-0.03,18.238
		c0.005,4.615,0.021,9.229,0.058,13.845c0.03,3.75-1.104,1.387-2.154-0.444c-2.091-3.642-4.306-7.252-6.427-10.886
		c-1.632-2.433-1.714,0.109-2.643,0.538c-0.776,0.357-1.86-2.755-2.083-3.28c-0.483-1.141-0.946-2.293-1.438-3.429
		c-0.477-1.083-0.955-2.164-1.429-3.248c0.67,4.256,2.188,8.434,0.436,12.662c-0.391,0.94-0.52-0.114-0.7-0.721
		c-1.67-5.646-3.5-11.387-5.267-17.013c-1.064-3.392-2.153-6.771-3.299-10.138c-0.068-0.201-0.295-0.903-0.397-1.069
		c-0.706-0.795,1.034,9.613,1.304,11.065c1.253,6.682,3.068,15.589,1.541,22.273c-0.301,0.968-0.472,1.054-0.804,0.003
		c-0.356-1.127-0.703-2.669-1.021-3.857c-0.743-2.778-1.478-5.558-2.24-8.33c-0.431-1.558-0.866-3.113-1.309-4.668
		c-0.513-1.803-0.206,0.31-0.172,0.936c0.221,4.403,0.294,13.388-0.88,17.446c-0.462,1.597-0.721-0.562-0.845-1.115
		c-0.339-1.516-1.804-7.896-2.34-8.924c-0.421,2.707,0.347,13.12-0.364,14.57c-1.186,2.421-2.725-6.729-2.76-6.879
		c-1.6-6.893-2.535-0.263-4.102-7.514c-1.594-7.381-3.086-15.061-5.29-22.268c-1.186-3.807-0.101,1.953,0.004,2.669
		c0.435,2.976,3.963,25.685,3.677,26.625c-0.217,0.715-2.899,2.375-4.109,1.763c-1.028-0.521-0.572-0.732-1.961-0.919
		c-1.183-0.159-1.284-2.99-1.399-3.854c-0.823-6.12-1.618-12.195-2.491-18.314c-0.197-1.385-0.4-2.77-0.608-4.153
		c-0.409-2.706-1.479-2.589-1.587,0.208c-0.064,1.681,0.03,3.67,0.03,5.401c-0.002,6.735,0.076,13.563,0.029,20.281
		c-0.006,0.709,0.063,2.145-0.731,2.44l-0.264-0.072c-0.824-0.496-0.754-4.454-0.811-5.49c-0.395-7.188-0.788-14.376-1.206-21.563
		c-0.193-3.323-0.753-0.247-0.891,0.966c-0.597,5.299-1.031,10.596-1.598,15.882c-0.011,0.1-0.299,2.748-0.81,2.072
		c-0.209-0.277-0.637-4.339-0.854-5.213c-0.125-0.507-0.126-0.135-0.191,0.223c-0.5,2.712-0.813,5.968-1.148,8.732
		c-0.349,2.877-0.677,5.757-1.028,8.632c-0.145,1.175-0.289,2.348-0.434,3.521c-0.568,0-1.135,0-1.703,0c0-4.306,0-8.61,0-12.916
		c-0.199-0.032-0.399-0.063-0.599-0.096c-0.91,3.596-1.819,7.192-2.728,10.789c-0.664-3.245,0.421-6.299-0.449-9.597
		c-2.752,3.835-3.394,7.232-3.893,11.815c-1.053,0.012-7.078,0.327-7.442-0.413c-0.464-0.944-0.228-9.525-0.215-11.279
		c-0.002-5.502,0.428-5.595-1.28-0.269c-1.074,3.403-2.249,7.812-3.572,11.001c-0.714,1.722-0.968,0.754-0.772-0.591
		c0.339-2.324,1.257-5.716,1.793-8.12c2.057-9.223,4.094-18.445,5.987-27.705c1.083-5.322-1.694,3.378-1.945,4.096
		c-3.749,10.75-6.924,21.457-11.507,31.922c-0.82,1.873-1.06,1.376-3.326,1.365c-2.506-0.011-5.016-0.003-7.522-0.003
		c2.648-10.403,5.394-20.817,7.933-31.245c0.773-3.177-0.788-0.104-1.221,0.965c-2.858,7.042-5.586,14.342-8.364,21.441
		c-1.152,2.946-2.305,5.893-3.458,8.839c-3.122,0-6.245,0-9.367,0c0.684-4.998,3.412-9.219,5.447-13.654
		c8.662-19.136,15.093-39.5,19.279-60.077c0.707-3.514-0.598,0.188-1.069,1.277c-1.822,4.212-3.51,8.484-5.393,12.667
		c-8.561,18.77-17.299,38.789-27.517,56.66c-0.359,0.628-2.073,3.642-3.095,3.045c-0.567-0.332,2.048-5.493,2.348-6.171
		c9.625-21.753,19.016-44.075,26.355-66.708c3.17-9.776-5.104,8.635-5.396,9.278c-7.905,16.897-15.839,33.514-25.997,49.215
		c-2.529,3.987-4.472,8.064-6.722,12.188c-0.233,0.425-1.596,3.006-2.415,2.344c-0.605-0.489,1.541-4.104,1.851-4.696
		c12.071-23.131,24.178-48.737,32.122-73.583c1.679-5.253-1.981,1.466-2.541,2.445c-1.153,2.018-2.251,4.066-3.395,6.09
		c-8.463,14.89-16.929,29.777-25.344,44.694c-4.638,8.131-9.774,15.384-13.802,23.926c-0.417,0.885-0.526,1.326-1.606,1.107
		c-0.885-0.18,0.178-1.877,0.438-2.442c3.252-7.088,7.667-13.474,11.373-20.313c5.665-10.575,13.74-23.076,17.089-34.467
		c0.791-2.688-0.149-1.688-1.33-0.199c-1.979,2.492-4.342,6.519-6.137,9.31c-7.679,11.944-15.356,23.889-22.94,35.894
		c-1.963,3.182-3.386,6.287-5.197,9.448c-1.875,3.273-3.354,2.866-6.782,2.762c-5.178-0.123-10.598,0-15.798,0.029
		c-4.493,0.026-5.292-1.403-8.362-4.383c-10.183-9.879-17.987-19.589-25.792-31.418c-6.478-10.027-11.909-20.381-18.043-30.541
		c-1.923-3.186-1.252-0.948-0.834,1.138c1.771,8.85,5.136,17.16,9.061,25.253c7.416,14.886,15.584,26.031,27.25,37.846
		c2.773,2.809-0.59,2.543-2.681,0.527c-1.888-1.819-4.429-5.171-6.25-7.318c-10.739-12.72-18.55-24.47-26.3-39.189
		c-7.587-14.552-14.108-29.488-20.439-44.615c-0.18-0.438-1.805-4.422-2.461-3.853c-0.986,0.854,9.635,32.252,10.948,35.903
		c6.212,17.065,12.802,30.982,22.72,46.234c3.519,5.596-0.185,1.714-1.792-0.342c-4.898-6.502-9.971-15.036-13.846-22.229
		c-5.15-9.635-9.238-19.207-12.57-29.615c-0.528-1.653-5.901-18.034-6.375-17.979c-0.881,0.103,1.7,13.297,1.992,14.538
		c6.499,25.572,15.299,44.506,30.584,66.007c4.95,6.926,0.846,3.544-2.014-0.013c-3.753-4.668-7.113-10.169-10.311-15.249
		c-0.696-1.105-1.39-2.216-2.057-3.339c-6.105-10.421-10.271-19.691-14.855-30.802c-3.382-8.197,2.891,12.229,2.948,12.403
		c4.254,12.781,10.063,24.535,16.535,36.312l0.27,0.491c0.334,0.605,2.477,4.282,0.407,4.107c-2.246-0.19-3.707-5.236-4.624-7.113
		c-1.78-3.639-3.875-7.013-5.59-10.74c-1.451-3.335-10.768-25.294-11.609-26.27c-0.34,1.611,5.234,20.725,6.198,23.833
		c1.578,5.025,3.292,9.98,5.169,14.902c0.329,0.802,2.248,4.733,1.34,5.254c-0.917,0.526-5.836,0.222-7.193,0.189
		c-6.855-0.033-13.677-0.003-20.53,0.045c-3.23,0.022-3.405-1.018-3.729-4.115c-0.406-3.603-3.263-28.739-4.106-29.787
		c-0.709,1.716,2.004,23.899,2.437,27.636c0.08,0.702,0.16,1.405,0.241,2.108c0.201,1.721,0.549,4.644-2.13,4.261
		c-2.7-0.386-2.547-4.835-2.739-6.873c0-0.004-1.599-23.044-1.67-14.333c-0.039,4.696,0.061,9.621,0.108,14.337
		c0.011,1.051,0.024,2.103,0.04,3.154c0.066,3.933-0.689,3.633-4.293,3.578c-9.782-0.149-19.788-0.011-29.594-0.011
		c-6.396,0-12.723-0.021-19.12,0.101c-4.947,0.094-4.28-2.18-4.163-6.372c0.176-6.333,0.007-13.095-0.007-19.473
		c-0.01-4.553-0.018-9.105-0.02-13.659c-0.002-7.496,1.912-8.756,4.815-15.149C143.424,743.302,144.866,740.156,146.795,736.947
		L146.795,736.947z"/>
	<path style="fill-rule:evenodd;clip-rule:evenodd;" d="M635.566,792.756v-61.767h53.006v18.399h-32.854v7.097h21.217v10.776
		h-21.217v7.096h38.067v18.398H635.566L635.566,792.756z M540.069,749.389h-14.105c-7.33-0.234-8.411,1.796-3.257,6.074
		c9.243,8.089,13.77,15.96,13.609,23.611c-0.175,7.637-4.717,12.192-13.609,13.682h-32.854v-18.398h13.011
		c8.061,0.234,9.097-2.029,3.081-6.76c-9.93-9.127-14.149-17.509-12.675-25.146c1.489-7.637,6.162-11.463,14.032-11.463h32.768
		h0.949h19.201v61.767h-20.15V749.389L540.069,749.389z M564.47,792.756v-61.767h36.446c4.936,0,9.287,0.657,13.054,1.972
		c3.753,1.314,6.937,3.081,9.535,5.301c2.6,2.219,4.761,5.228,6.484,9.023c1.723,3.797,2.584,8.732,2.584,14.807
		c-0.307,5.607-1.256,10.383-2.818,14.325c-1.577,3.928-3.65,7.038-6.25,9.33c-2.599,2.278-5.768,4.045-9.521,5.301
		c-3.752,1.256-8.439,1.825-14.091,1.708H564.47L564.47,792.756z M585.059,746.322v31.015h11.769c2.644,0,4.79-0.569,6.41-1.694
		c1.621-1.124,2.95-2.556,3.987-4.308c1.021-1.752,1.679-4.906,1.956-9.462c-0.088-4.162-0.657-7.229-1.723-9.214
		c-1.081-1.972-2.453-3.519-4.133-4.644c-1.679-1.124-3.884-1.693-6.586-1.693H585.059L585.059,746.322z"/>
	<path d="M556.694,576.711v21.3h-22.938v50.794h-23.759v-50.794h-22.53v-21.3H556.694L556.694,576.711z M628.38,648.805v-72.094
		h61.376v21.3h-38.368v7.783h24.782v12.698h-24.782v8.192h44.786v22.12H628.38L628.38,648.805z M601.754,601.494v-24.783h23.759
		v72.094h-23.759v-26.011h-19.253v26.011h-23.349v-72.094h23.349v24.783H601.754L601.754,601.494z"/>
	<path style="fill-rule:evenodd;clip-rule:evenodd;" d="M479.556,716.804v-59.806c0-0.09,0.072-0.163,0.162-0.163h224.203
		c0.09,0,0.162,0.073,0.162,0.163v59.806c0,0.09-0.072,0.162-0.162,0.162H479.718C479.628,716.966,479.556,716.894,479.556,716.804
		L479.556,716.804z M496.266,709.538v-45h26.553c3.596,0,6.766,0.479,9.51,1.437c2.735,0.957,5.054,2.245,6.947,3.862
		c1.894,1.616,3.469,3.808,4.724,6.574c1.256,2.766,1.883,6.361,1.883,10.787c-0.224,4.085-0.914,7.563-2.054,10.436
		c-1.148,2.862-2.659,5.128-4.553,6.799c-1.894,1.659-4.202,2.946-6.937,3.861c-2.733,0.915-6.148,1.329-10.266,1.244H496.266
		L496.266,709.538z M658.265,664.538v14.649l10.287-14.649h14.649l-16.767,22.5l7.479,9.096h13.457v13.404h-17.766l-11.34-13.404
		v13.404h-14.659h-0.022h-17.744l-14.276-14.861v14.861h-15.639h-0.628h-16.394l-2.829-8.106h-13.372l-2.841,8.106h-16.139
		l14.798-45h22.352l14.425,43.124v-43.124h29.298c3.617,0.33,6.586,1.288,8.915,2.861c2.319,1.586,4.032,3.703,5.107,6.362
		c0.829,3.989,0.871,7.064,0.127,9.224c-0.745,2.159-2.063,3.968-3.926,5.425c-1.872,1.447-4.553,2.597-8.042,3.426l3.361,4.298
		h13.446v-31.596H658.265L658.265,664.538z M611.563,675.772v8.287h11.351c0.596,0,1.256-0.224,1.957-0.67
		c0.703-0.447,1.086-1.575,1.128-3.383c-0.105-1.724-0.531-2.862-1.266-3.404c-0.734-0.553-1.361-0.83-1.852-0.83H611.563
		L611.563,675.772z M569.743,674.475l-6.457,17.83h12.415L569.743,674.475L569.743,674.475z M511.265,675.709v22.596h8.574
		c1.926,0,3.49-0.415,4.671-1.234s2.148-1.861,2.904-3.138c0.744-1.277,1.224-3.575,1.425-6.895
		c-0.063-3.032-0.479-5.266-1.255-6.713c-0.787-1.436-1.787-2.563-3.011-3.383s-2.83-1.233-4.798-1.233H511.265L511.265,675.709z"/>
	<path d="M583.013,496.424v21.3h-22.938v51.204h-23.759v-51.204h-22.53v-21.3H583.013L583.013,496.424z M612.574,532.745
		c0,5.597,0.985,10.464,3.004,14.542c2.006,4.046,6.077,6.076,12.221,6.076c4.779,0,8.399-1.093,10.72-3.277
		s3.756-4.644,4.301-7.305c0.543-2.661,1.159-6,1.159-10.036c0-5.468-1.352-10.182-3.275-14.27
		c-1.895-4.034-6.213-6.077-12.904-6.077C617.696,512.398,612.574,519.159,612.574,532.745L612.574,532.745z M669.855,532.539
		c0,8.056-1.71,14.816-5.053,20.345c-3.345,5.528-8.121,9.71-14.406,12.562c-6.341,2.88-13.79,4.301-22.528,4.301
		c-8.67,0-16.184-1.434-22.394-4.301s-10.923-7.032-14.063-12.562s-4.711-12.289-4.711-20.345c0-5.94,0.872-11.271,2.595-15.839
		c1.755-4.646,4.371-8.466,7.92-11.605c3.547-3.139,7.914-5.487,13.106-7.101c5.11-1.59,10.992-2.39,17.547-2.39
		c8.738,0,16.189,1.423,22.528,4.302c6.286,2.852,11.062,7.034,14.406,12.562C668.146,517.996,669.855,524.688,669.855,532.539
		L669.855,532.539z"/>
	<path style="fill-rule:evenodd;clip-rule:evenodd;" d="M479.556,488.232v-59.806c0-0.089,0.072-0.162,0.162-0.162h224.203
		c0.09,0,0.162,0.073,0.162,0.162v59.806c0,0.089-0.072,0.162-0.162,0.162H479.718C479.628,488.394,479.556,488.321,479.556,488.232
		L479.556,488.232z M530.563,466.523h13.264v12.613h-18.77c-4.595,0-8.749-0.821-12.462-2.453c-3.725-1.631-6.647-4.074-8.789-7.337
		c-2.142-3.273-3.213-7.268-3.213-12.002c0-3.323,0.641-6.286,1.922-8.899c1.281-2.603,3.053-4.775,5.325-6.506
		c2.262-1.731,4.875-3.023,7.817-3.874c2.943-0.851,6.076-1.271,9.399-1.271h11.612h7.157v12.612h-13.264
		c-2.963,0-5.166,0.09-6.597,0.26c-1.422,0.18-2.692,0.471-3.813,0.881c-1.111,0.411-2.103,1.122-2.953,2.142
		c-0.861,1.011-1.361,2.813-1.502,5.396c0.101,2.502,0.601,4.284,1.502,5.365c0.891,1.071,1.992,1.782,3.283,2.132
		c1.291,0.351,2.612,0.601,3.983,0.741C525.838,466.453,527.87,466.523,530.563,466.523L530.563,466.523z M592.714,458.175
		c0,4.635-0.971,8.589-2.902,11.852c-1.933,3.263-4.734,5.726-8.398,7.368c-3.674,1.642-8.049,2.462-13.123,2.462
		c-5.085,0-9.449-0.831-13.093-2.483c-3.653-1.651-6.417-4.094-8.289-7.327c-1.882-3.243-2.813-7.197-2.813-11.872
		c0-3.543,0.53-6.656,1.611-9.349c1.071-2.682,2.644-4.955,4.715-6.787c2.072-1.841,4.614-3.233,7.628-4.184
		c3.013-0.951,6.427-1.421,10.24-1.421c5.055,0,9.43,0.841,13.103,2.513c3.674,1.671,6.486,4.134,8.419,7.387
		C591.743,449.597,592.714,453.541,592.714,458.175L592.714,458.175z M559.141,458.305c0,2.723,0.61,5.095,1.832,7.118
		c1.221,2.012,3.624,3.023,7.228,3.023c2.772,0,4.854-0.53,6.226-1.582c1.381-1.061,2.242-2.272,2.583-3.633
		c0.34-1.362,0.57-3.003,0.69-4.926c-0.12-2.722-0.771-5.094-1.962-7.116c-1.191-2.032-3.704-3.043-7.537-3.043
		C562.153,448.146,559.141,451.528,559.141,458.305L559.141,458.305z M594.206,479.136v-42.342h13.813l9.249,17.598l9.189-17.598
		h13.813v42.342h-13.813l0.02-17.598l-8.848,17.598h-0.762l-8.849-17.598v17.598H594.206L594.206,479.136z M643.134,479.136v-42.342
		h36.337v12.612h-22.522v4.865h14.545v7.387h-14.545v4.865h26.097v12.613H643.134L643.134,479.136z"/>
	<path style="fill:#FFFFFF;" d="M530.563,466.523h13.263v12.612h-18.769c-4.595,0-8.748-0.821-12.462-2.452
		c-3.725-1.632-6.646-4.074-8.789-7.337c-2.143-3.273-3.213-7.267-3.213-12.002c0-3.323,0.641-6.286,1.922-8.899
		c1.281-2.603,3.053-4.775,5.325-6.506c2.262-1.732,4.874-3.023,7.817-3.874c2.943-0.851,6.076-1.271,9.399-1.271h11.612h7.156
		v12.612h-13.263c-2.963,0-5.165,0.09-6.597,0.261c-1.422,0.18-2.692,0.47-3.813,0.88c-1.111,0.411-2.103,1.122-2.953,2.142
		c-0.861,1.011-1.361,2.813-1.502,5.396c0.101,2.502,0.601,4.284,1.502,5.365c0.891,1.071,1.992,1.782,3.283,2.132
		s2.612,0.601,3.983,0.741C525.838,466.454,527.87,466.523,530.563,466.523L530.563,466.523z M592.714,458.175
		c0,4.635-0.971,8.588-2.902,11.852c-1.933,3.264-4.734,5.726-8.398,7.368c-3.674,1.642-8.048,2.462-13.123,2.462
		c-5.085,0-9.449-0.831-13.094-2.483c-3.653-1.651-6.416-4.094-8.287-7.327c-1.883-3.243-2.813-7.197-2.813-11.872
		c0-3.543,0.53-6.657,1.611-9.35c1.071-2.683,2.644-4.955,4.715-6.787c2.072-1.842,4.614-3.233,7.628-4.184
		c3.013-0.951,6.427-1.421,10.24-1.421c5.055,0,9.43,0.841,13.103,2.513c3.674,1.671,6.486,4.134,8.419,7.387
		C591.743,449.597,592.714,453.541,592.714,458.175L592.714,458.175z M559.141,458.305c0,2.723,0.61,5.095,1.832,7.117
		c1.222,2.012,3.624,3.023,7.228,3.023c2.772,0,4.854-0.53,6.226-1.582c1.382-1.061,2.242-2.272,2.583-3.633
		c0.34-1.362,0.57-3.003,0.69-4.925c-0.12-2.723-0.771-5.095-1.962-7.117c-1.191-2.032-3.704-3.043-7.537-3.043
		C562.153,448.145,559.141,451.528,559.141,458.305L559.141,458.305z M594.206,479.136v-42.342h13.813l9.249,17.598l9.189-17.598
		h13.813v42.342h-13.813l0.02-17.597l-8.849,17.597h-0.761l-8.849-17.597v17.597H594.206L594.206,479.136z M643.135,479.136v-42.342
		h36.336v12.612h-22.522v4.865h14.545v7.388h-14.545v4.865h26.096v12.612H643.135L643.135,479.136z"/>
	<path style="fill-rule:evenodd;clip-rule:evenodd;fill:#FFFFFF;" d="M496.266,709.538v-45h26.553c3.596,0,6.766,0.479,9.51,1.437
		c2.735,0.957,5.054,2.245,6.947,3.862c1.894,1.616,3.469,3.808,4.724,6.574c1.256,2.766,1.883,6.361,1.883,10.787
		c-0.224,4.085-0.914,7.563-2.054,10.436c-1.148,2.862-2.659,5.128-4.553,6.799c-1.894,1.659-4.202,2.946-6.937,3.861
		c-2.733,0.915-6.148,1.329-10.266,1.244H496.266L496.266,709.538z M658.265,664.538v14.649l10.287-14.649h14.649l-16.767,22.5
		l7.479,9.096h13.457v13.404h-17.766l-11.34-13.404v13.404h-14.659h-0.022h-17.744l-14.276-14.861v14.861h-15.639h-0.628h-16.394
		l-2.829-8.106h-13.372l-2.841,8.106h-16.139l14.798-45h22.352l14.425,43.124v-43.124h29.298c3.617,0.33,6.586,1.288,8.915,2.861
		c2.319,1.586,4.032,3.703,5.107,6.362c0.829,3.989,0.871,7.064,0.127,9.224c-0.745,2.159-2.063,3.968-3.926,5.425
		c-1.872,1.447-4.553,2.597-8.042,3.426l3.361,4.298h13.446v-31.596H658.265L658.265,664.538z M611.563,675.772v8.287h11.351
		c0.596,0,1.256-0.224,1.957-0.67c0.703-0.447,1.086-1.575,1.128-3.383c-0.105-1.724-0.531-2.862-1.266-3.404
		c-0.734-0.553-1.361-0.83-1.852-0.83H611.563L611.563,675.772z M569.743,674.475l-6.457,17.83h12.415L569.743,674.475
		L569.743,674.475z M511.265,675.709v22.596h8.574c1.926,0,3.49-0.415,4.671-1.234s2.148-1.861,2.904-3.138
		c0.744-1.277,1.224-3.575,1.425-6.895c-0.063-3.032-0.479-5.266-1.255-6.713c-0.787-1.436-1.787-2.563-3.011-3.383
		s-2.83-1.233-4.798-1.233H511.265L511.265,675.709z"/>
</g>
</svg>
